<?xml version="1.0" encoding="utf-8"?>
<!-- Generator: Adobe Illustrator 18.0.0, SVG Export Plug-In . SVG Version: 6.00 Build 0)  -->
<!DOCTYPE svg PUBLIC "-//W3C//DTD SVG 1.1//EN" "http://www.w3.org/Graphics/SVG/1.1/DTD/svg11.dtd">
<svg version="1.1" id="Layer_1" xmlns="http://www.w3.org/2000/svg" xmlns:xlink="http://www.w3.org/1999/xlink" x="0px" y="0px"
	 viewBox="0 0 387.4 452.7" enable-background="new 0 0 387.4 452.7" xml:space="preserve">
<g>
	<path fill="#F5F3F3" d="M247.9,322.6c0,0-0.2-11.6,2.7-23.8c0,0,7.7-20.6-1.9-30.2c0,0-5.6-6.5-26.3-16.8c0,0-14.3-7.3-18.4-4.2
		c0,0-6.6,6.6-13.9-0.8c0,0-4.8-2.3-11.2,2.7c0,0-14.3,12.6-26.3,14.1c0,0-18,2.7-8.7,35.4c0,0,2.5,5.6-0.6,18.5
		c0,0-5.8,20.3,0.6,28.4c0,0,12,11,35,23c0,0,19.9,12,40.2-1.5c0,0,2.3-2.1,23-19.3C242.1,348.1,250.2,337.9,247.9,322.6z
		 M233,316.3c-9.9,6,9.4-22.8-9.5-18.4c-18.9,4.4-40.4-0.4-41.5-1.4c-1.2-1-14.5-3.3-11.4,14.9c0,0,0.8,5.4-2.1,12.2
		c-2.9,6.8-16-8.7-17.4-21.2c0,0-3.9-13.7,7.9-15.1c11.8-1.4,23.6,0.6,30.7-4.1c7.1-4.6,4.1-21.6,15.3-3.9c0,0,4.4,6,21.4,8.5
		C243.4,290.3,242.9,310.3,233,316.3z"/>
	<path fill="#F5F3F3" d="M361.2,353.3c7.2-1.3,12.1-8,12.1-8c-23.4,7.7-34-8.5-34-8.5c-21.9-31.7,13.9-61.6,13.9-61.6
		c35.6-31.7,14.1-66.2,9.3-73c39.7,12.8,12.1,50.3,12.1,50.3c28.6-30.2,0-54.4,0-54.4c-29.4-18.9-38-50.6-38-50.6
		C296.5,22.8,240.8,8.1,240.8,8.1c-71.4-16.2-93.7-4.8-100.6,5c-8.3,0.3-37.2,6.4-65.2,71.4c0,0-5.8,21.6-46.4,69.5
		c0,0-7.3,5.8-16.2,57.2c0,0,20.1-38.2,40.2-38c-4,6.9-3.5,9.4-3.5,9.4c0.8,30.9-24.7,44.4-24.7,44.4c6.2-2.6,11.8-5.1,16.8-7.4
		c0.6,12.2,0,35.8-11.4,48c0,0-12.7,12.7-29.7,6.2c0,0,10.7,5.6,25,5.2c-12.1,9.7-16.1,1.8-16.1,1.8s3.6,18.1,16.2,18.2
		c0.2,0,0.4,0,0.7,0c1.5,6.4,1.9,19-13.4,29.4c0,0,9.1,3.8,21.5,0.7c1,6,2.1,16.5-1.4,24.3c-4,2.2-8.8,4.1-14.3,5.5
		c0,0,7.3,4.6,15.8,2.7c0,0-10,4.2-21.6,1.9c0,0,14.7,16.9,43.3,0.7c38.9-22,31.8-105,30.5-117.7c0.6-8,0.3-14.8-0.2-20
		c3-25.2,0.6-47.3,0.6-47.3c4.3-13,15.9-27.3,15.9-27.3c21.6-37,13.9-47.7,13.9-47.7C101.6,70.5,137.2,67,137.2,67
		c46.9-10.9,39.8,24.4,39.8,24.4s-1.5,22.4,53.1,57c0,0,27.6,11.2,36.3,83.3c0,0,16.8,54.4,45.3,22.9c0,0-17.3,5.2-21.6-38
		c0,0,0.6-5,0.5-13.3c6,15,15.5,29.5,30.4,37.5c-6.8,10.7-11,27-13.5,41.1c-8,15.3-11.4,32-11.4,32c-7.5,41.7-8.5,104.8-8.5,104.8
		c-4.9,19.1-16.2,21.9-16.2,21.9c-18.5,2.8-22.9-6.4-22.9-6.4c-0.1,0.3-0.2,0.5-0.3,0.8c-2.7,7,1.9,11.5,1.9,11.5
		c37.6,26.5,52-48.7,52-48.7c6.2,9,30.7,18.8,30.7,18.8c-15.7-20.1-21-51.3-21-51.3c9.9,19.3,30.6,31.2,30.6,31.2
		c16.2,11.3,29.6-3.3,29.6-3.3c-9.5-3.9-15.2-18-15.2-18c14.4,5.4,15.5,0,15.5,0c-17.5-6.2-22.2-17.3-22.2-17.3
		c26.5,8,33.2-3.6,33.2-3.6C363.8,356.4,361.2,353.3,361.2,353.3z M277.3,142c-1.4-3.2-2.9-6.4-4.5-9.6c0,0-1.6-4.4-4.5-10.9
		C271.4,127.9,274.3,134.7,277.3,142z M356.5,200.6c1,0.2,1.9,0.5,2.8,0.7C358.6,201.3,357.7,201.1,356.5,200.6z M194.6,86.7
		c-0.2-0.8-0.4-1.5-0.5-2.2C194.5,85.8,194.6,86.7,194.6,86.7c11.2,30.2,38.4,47.9,38.4,47.9S201.8,118.1,194.6,86.7z"/>
</g>
</svg>
