<?xml version="1.0" encoding="utf-8"?>
<!-- Generator: Adobe Illustrator 16.0.0, SVG Export Plug-In . SVG Version: 6.00 Build 0)  -->
<!DOCTYPE svg PUBLIC "-//W3C//DTD SVG 1.1//EN" "http://www.w3.org/Graphics/SVG/1.1/DTD/svg11.dtd">
<svg version="1.1" id="Icons" xmlns="http://www.w3.org/2000/svg" xmlns:xlink="http://www.w3.org/1999/xlink" x="0px" y="0px"
	 width="32.201px" height="69px" viewBox="33.9 15.5 32.201 69" enable-background="new 33.9 15.5 32.201 69" xml:space="preserve">
<path id="Facebook" d="M40.86,28.864c0,1.739,0,9.5,0,9.5H33.9V49.98h6.96V84.5h14.297V49.981h9.594c0,0,0.898-5.57,1.334-11.661
	c-1.248,0-10.874,0-10.874,0s0-6.758,0-7.942c0-1.187,1.56-2.784,3.1-2.784c1.538,0,4.783,0,7.79,0c0-1.582,0-7.046,0-12.094
	c-4.014,0-8.579,0-10.591,0C40.506,15.5,40.86,27.127,40.86,28.864z"/>
</svg>
