<?xml version="1.0" encoding="utf-8"?>
<!-- Generator: Adobe Illustrator 16.0.0, SVG Export Plug-In . SVG Version: 6.00 Build 0)  -->
<!DOCTYPE svg PUBLIC "-//W3C//DTD SVG 1.1//EN" "http://www.w3.org/Graphics/SVG/1.1/DTD/svg11.dtd">
<svg version="1.1" id="Icons" xmlns="http://www.w3.org/2000/svg" xmlns:xlink="http://www.w3.org/1999/xlink" x="0px" y="0px"
	 width="100px" height="68.891px" viewBox="0 15.555 100 68.891" enable-background="new 0 15.555 100 68.891" xml:space="preserve"
	>
<path id="Twitter__x28_alt_x29_" d="M88.67,46.182c5.616-0.463,9.426-3.017,10.892-6.481c-2.025,1.245-8.314,2.602-11.788,1.309
	c-0.17-0.816-0.36-1.591-0.547-2.291c-2.646-9.718-11.708-17.547-21.202-16.601c0.769-0.311,1.547-0.599,2.324-0.858
	c1.045-0.375,7.177-1.372,6.211-3.536c-0.813-1.904-8.306,1.438-9.716,1.875c1.862-0.701,4.941-1.905,5.271-4.044
	c-2.853,0.391-5.653,1.74-7.817,3.701c0.781-0.841,1.374-1.866,1.5-2.969c-7.608,4.861-12.053,14.661-15.65,24.167
	c-2.825-2.737-5.328-4.893-7.573-6.089c-6.3-3.378-13.833-6.903-25.657-11.293c-0.363,3.912,1.935,9.114,8.556,12.573
	c-1.434-0.192-4.058,0.236-6.155,0.739c0.854,4.482,3.645,8.174,11.199,9.96c-3.452,0.228-5.236,1.014-6.853,2.707
	c1.572,3.117,5.409,6.786,12.311,6.032c-7.674,3.308-3.129,9.434,3.115,8.52C26.438,74.603,9.644,73.796,0,64.593
	c25.179,34.312,79.912,20.292,88.068-12.757c6.111,0.053,9.704-2.116,11.932-4.507C96.479,47.926,91.376,47.309,88.67,46.182z"/>
</svg>
